<?xml version="1.0" encoding="utf-8"?>
<!-- Generator: Adobe Illustrator 27.7.0, SVG Export Plug-In . SVG Version: 6.00 Build 0)  -->
<svg version="1.1" id="Layer_1" xmlns="http://www.w3.org/2000/svg" xmlns:xlink="http://www.w3.org/1999/xlink" x="0px" y="0px"
	 viewBox="0 0 91 24" style="enable-background:new 0 0 91 24;" xml:space="preserve">
<style type="text/css">
	.st0{fill:#E30613;}
</style>
<g>
	<g>
		<g>
			<g>
				<path class="st0" d="M12.3-0.3c-2.1,0-4.1,0.5-5.9,1.5l2.3,2.7l1.6,1.9c0.7-0.2,1.4-0.4,2.1-0.4c3.6,0,6.5,2.9,6.5,6.5
					c0,2.5-1.5,4.7-3.6,5.8c-0.1,0.1-2.5,1.4-6.6,1.4l-6.5,0c2.2,3.1,5.8,5,9.9,5c6.8,0,12.3-5.5,12.3-12.3S19.1-0.3,12.3-0.3z"/>
				<path class="st0" d="M2.6,4.5l4.9,3.3C8,7.2,8.6,6.7,9.3,6.3L5.1,2.1C4.1,2.8,3.3,3.6,2.6,4.5z"/>
				<path class="st0" d="M7.1,11.2l6,2.3v-1.4L8,9.2C7.6,9.7,7.3,10.4,7.1,11.2z"/>
				<path class="st0" d="M8.7,8.5l4.5,3V10l-2.6-2.6C9.9,7.7,9.2,8,8.7,8.5z"/>
				<path class="st0" d="M13.2,15.8v-1.6L7,12.2c-0.1,0.9,0,2.1,0.4,3.4c0,0-1.4-1.5-1.4-3.7l-5.8-1.8l0,0C0.1,10.7,0,11.3,0,12
					c0,1.3,0.2,2.6,0.6,3.8H13.2z"/>
				<path class="st0" d="M0.5,8.6L6,10.8C6.1,10,6.4,9.3,6.8,8.6l-5-3C1.2,6.5,0.8,7.5,0.5,8.6z"/>
				<path class="st0" d="M5.8,16.6l-5,0c0.3,0.7,0.6,1.3,0.9,1.9h8.9l1.1-1.2H6.5L5.8,16.6z"/>
			</g>
		</g>
		<g>
			<g>
				<path class="st0" d="M88.5,14.5c-0.8,1.3-2.2,2.1-3.8,2.1c-2.5,0-4.6-2-4.6-4.6c0-2.5,2-4.6,4.6-4.6c1.6,0,3,0.8,3.9,2.1L91,6.1
					c-1.6-1.7-3.8-2.7-6.3-2.7c-4.7,0-8.6,3.8-8.6,8.6c0,4.7,3.8,8.6,8.6,8.6c2.5,0,4.7-1,6.2-2.7L88.5,14.5z"/>
				<path class="st0" d="M58.3,14.5c-0.8,1.3-2.2,2.1-3.8,2.1c-2.5,0-4.6-2-4.6-4.6c0-2.5,2-4.6,4.6-4.6c1.6,0,3,0.8,3.9,2.1
					l2.4-3.4c-1.6-1.7-3.8-2.7-6.3-2.7c-4.7,0-8.6,3.8-8.6,8.6c0,4.7,3.8,8.6,8.6,8.6c2.5,0,4.7-1,6.2-2.7L58.3,14.5z"/>
				<path class="st0" d="M62.4,3.7h6.5c3.5,0,5.6,1.6,5.6,4.5c0,1.5-0.6,2.6-1.8,3.4c1.6,0.7,2.3,2.1,2.3,3.7c0,3.5-2.7,5-6,5h-6.6
					V3.7z M68.7,10.4c1.1,0,1.7-0.8,1.7-1.8c0-1-0.6-1.7-1.8-1.7h-2.3v3.5H68.7z M69,17.1c1.3,0,2-1.1,2-2c0-1-0.7-2-1.9-2h-2.7v4
					H69z"/>
				<path class="st0" d="M36,3.4c-4.7,0-8.6,3.8-8.6,8.6c0,4.7,3.8,8.6,8.6,8.6c4.7,0,8.6-3.8,8.6-8.6C44.6,7.3,40.7,3.4,36,3.4z
					 M36,16.6c-2.5,0-4.6-2-4.6-4.6c0-2.5,2-4.6,4.6-4.6s4.6,2,4.6,4.6C40.5,14.6,38.5,16.6,36,16.6z"/>
			</g>
		</g>
	</g>
</g>
</svg>
