<svg width="24" height="24" viewBox="0 0 24 24" fill="none" xmlns="http://www.w3.org/2000/svg">
<path d="M13.7 12L19.9 18.2C19.9667 18.2667 20 18.3583 20 18.475C20 18.5917 19.9667 18.6833 19.9 18.75L18.75 19.9C18.6833 19.9667 18.5917 20 18.475 20C18.3583 20 18.2667 19.9667 18.2 19.9L12 13.7L5.8 19.9C5.73333 19.9667 5.64167 20 5.525 20C5.40833 20 5.31667 19.9667 5.25 19.9L4.1 18.75C4.03333 18.6833 4 18.5917 4 18.475C4 18.3583 4.03333 18.2667 4.1 18.2L10.3 12L4.1 5.8C4.03333 5.73333 4 5.64167 4 5.525C4 5.40833 4.03333 5.31667 4.1 5.25L5.25 4.1C5.31667 4.03333 5.40833 4 5.525 4C5.64167 4 5.73333 4.03333 5.8 4.1L12 10.3L18.2 4.1C18.2667 4.03333 18.3583 4 18.475 4C18.5917 4 18.6833 4.03333 18.75 4.1L19.9 5.25C19.9667 5.31667 20 5.40833 20 5.525C20 5.64167 19.9667 5.73333 19.9 5.8L13.7 12Z" fill="#B2BEC4"/>
<mask id="mask0_1194_4155" style="mask-type:luminance" maskUnits="userSpaceOnUse" x="4" y="4" width="16" height="16">
<path d="M13.7 12L19.9 18.2C19.9667 18.2667 20 18.3583 20 18.475C20 18.5917 19.9667 18.6833 19.9 18.75L18.75 19.9C18.6833 19.9667 18.5917 20 18.475 20C18.3583 20 18.2667 19.9667 18.2 19.9L12 13.7L5.8 19.9C5.73333 19.9667 5.64167 20 5.525 20C5.40833 20 5.31667 19.9667 5.25 19.9L4.1 18.75C4.03333 18.6833 4 18.5917 4 18.475C4 18.3583 4.03333 18.2667 4.1 18.2L10.3 12L4.1 5.8C4.03333 5.73333 4 5.64167 4 5.525C4 5.40833 4.03333 5.31667 4.1 5.25L5.25 4.1C5.31667 4.03333 5.40833 4 5.525 4C5.64167 4 5.73333 4.03333 5.8 4.1L12 10.3L18.2 4.1C18.2667 4.03333 18.3583 4 18.475 4C18.5917 4 18.6833 4.03333 18.75 4.1L19.9 5.25C19.9667 5.31667 20 5.40833 20 5.525C20 5.64167 19.9667 5.73333 19.9 5.8L13.7 12Z" fill="white"/>
</mask>
<g mask="url(#mask0_1194_4155)">
</g>
</svg>
