<?xml version="1.0" encoding="utf-8"?>
<!-- Generator: Adobe Illustrator 24.2.3, SVG Export Plug-In . SVG Version: 6.00 Build 0)  -->
<svg version="1.1" id="Layer_1" xmlns="http://www.w3.org/2000/svg" xmlns:xlink="http://www.w3.org/1999/xlink" x="0px" y="0px"
	 viewBox="0 0 12 7" style="enable-background:new 0 0 12 7;" xml:space="preserve">
<style type="text/css">
	.st0{fill-rule:evenodd;clip-rule:evenodd;fill:#6B8592;}
</style>
<g id="Symbols">
	<g id="Need-help_x3F_--collapsed" transform="translate(-470.000000, -22.000000)">
		<g id="Group" transform="translate(464.000000, 13.000000)">
			<g id="Angle-down">
				<path id="path-1_1_" class="st0" d="M11.7,15.6l-5.2-5.2c-0.1-0.1-0.1-0.2-0.1-0.3s0-0.2,0.1-0.3l0.7-0.7C7.3,9,7.4,9,7.5,9
					s0.2,0,0.3,0.1l4.2,4.2l4.2-4.2C16.3,9,16.4,9,16.5,9s0.2,0,0.3,0.1l0.7,0.7c0.1,0.1,0.1,0.2,0.1,0.3s0,0.2-0.1,0.3l-5.2,5.2
					c-0.1,0.1-0.2,0.1-0.3,0.1C11.9,15.7,11.8,15.6,11.7,15.6L11.7,15.6z"/>
			</g>
		</g>
	</g>
</g>
</svg>
