<?xml version="1.0" encoding="UTF-8"?><svg width="16px" height="16px" viewBox="0 0 16 16" version="1.1" xmlns="http://www.w3.org/2000/svg" xmlns:xlink="http://www.w3.org/1999/xlink"><defs><path d="M16,8 C16,12.4182847 12.4182847,16 8,16 C3.58171525,16 0,12.4182847 0,8 C0,3.58171525 3.58171525,0 8,0 C12.4182847,0 16,3.58171525 16,8 Z M14,8 C14,4.68628475 11.3137153,2 8,2 C4.68628475,2 2,4.68628475 2,8 C2,11.3137153 4.68628475,14 8,14 C11.3137153,14 14,11.3137153 14,8 Z M7,4 C7,3.44771525 7.44771525,3 8,3 C8.55228475,3 9,3.44771525 9,4 L9,9.00442669 C9,9.55671144 8.55228475,10.0044267 8,10.0044267 C7.44771525,10.0044267 7,9.55671144 7,9.00442669 L7,4 Z M8,13 C7.44771525,13 7,12.5522847 7,12 C7,11.4477153 7.44771525,11 8,11 C8.55228475,11 9,11.4477153 9,12 C9,12.5522847 8.55228475,13 8,13 Z" id="path-1"/></defs><g id="Icon-/-Status-/-Error" stroke="none" stroke-width="1" fill="none" fill-rule="evenodd"><mask id="mask-2" fill="white"><use xlink:href="#path-1"/></mask><g id="White" mask="url(#mask-2)" fill="white"><polygon id="Swatch" points="0 0 16 0 16 16 0 16"/></g></g></svg>